<?xml version="1.0" encoding="UTF-8"?>
<svg id="_Слой_1" data-name="Слой 1" xmlns="http://www.w3.org/2000/svg" viewBox="0 0 512 512">
  <defs>
    <style>
      .cls-1 {
        fill: #3b82f6;
      }

      .cls-1, .cls-2 {
        stroke-width: 0px;
      }

      .cls-2 {
        fill: #3f7ef4;
      }
    </style>
  </defs>
  <path class="cls-2" d="m455.02,197.83c-.28-4.31.25-8.65-.24-12.97-.67-5.62-1.19-11.25-2.29-16.81-3.38-17.06-8.53-33.55-18.14-48.15-19.48-29.59-43.87-54.47-73.56-73.91-37.82-24.77-79.01-38.43-124.64-36.87-24.27.83-47.56,6.18-69.18,17.26-50.38,25.81-83.86,66.36-101.31,119.89-12.09,37.06-10.81,74.73-2.01,112.35,6.09,26.04,15.83,50.71,28.04,74.45,16.29,31.63,36.56,60.27,62.8,84.51,31.54,29.16,67.75,50.55,107.98,65.31,6.15,2.25,12.34,4.4,19.01,6.25-2.43-7.55-5.14-14.58-6.43-22.01.07-1.5-.07-2.97-.38-4.45-2.73-12.97-4.01-26.02-2.81-39.32,1.17-12.93,4.34-25.28,9.88-36.98,8.06-17.02,20.64-30.31,35.38-41.69,15.29-11.81,32.3-20.89,49.06-30.33,18.1-10.19,36.08-20.51,51.71-34.44,12.69-11.31,22.63-24.58,29.02-40.29,5.44-13.34,9.09-27.14,8.11-41.8Zm-288.14,30.66c-15.18.03-27.57-12.34-27.55-27.51.02-14.99,12.42-27.39,27.41-27.4,15.23,0,27.51,12.31,27.49,27.54-.02,15.11-12.24,27.34-27.35,27.37Zm75.32.01c-11.47-.04-20.51-9.28-20.43-20.88.09-11.18,9.25-20.28,20.46-20.32,11.42-.04,20.62,9.26,20.57,20.77-.05,11.39-9.2,20.46-20.6,20.43Zm61.68-13.7c-7.51-.09-13.56-6.27-13.53-13.83.03-7.52,6.21-13.68,13.7-13.67,7.51.02,13.66,6.17,13.67,13.69.01,7.68-6.21,13.9-13.84,13.81Z"/>
  <path class="cls-1" d="m331.63,393.22c15.24.06,27.37,12.38,27.29,27.72-.08,14.87-12.43,27.3-27.36,27.11-17.95-.24-28.01-14.38-27.84-27.61.2-15.41,12.02-27.05,27.91-27.21Z"/>
  <path class="cls-1" d="m331.42,489.29c0,7.57-6.08,13.67-13.64,13.71-7.46.04-13.69-6.16-13.73-13.66-.05-7.66,6.16-13.86,13.82-13.81,7.58.05,13.56,6.13,13.55,13.76Z"/>
</svg>